<svg xmlns="http://www.w3.org/2000/svg" viewBox="0 0 13 12.67"><defs><style>.cls-1{fill:#0f0b4a;}.cls-2{fill:#8689c3;}</style></defs><title>adobe_animate</title><g id="Layer_2" data-name="Layer 2"><g id="Asset_export" data-name="Asset export"><path class="cls-1" d="M0,0H13V12.67H0V0"/><path class="cls-2" d="M3.69,7.3,3.27,8.87c0,.05,0,.05-.08.05H2.42c-.06,0-.06,0-.06-.08L3.86,3.6a1.79,1.79,0,0,0,.05-.41s0-.06,0-.06H5.06s.05,0,.06.06L6.79,8.85s0,.07,0,.07H5.88s-.07,0-.08,0L5.36,7.3H3.69m1.46-.87C5,5.85,4.66,4.58,4.53,4h0c-.11.62-.39,1.65-.61,2.47H5.15M7.3,5.51a5.33,5.33,0,0,0,0-.54s0,0,.05-.06a4.6,4.6,0,0,1,1.62-.35,1.39,1.39,0,0,1,1.55,1.56V8.85c0,.06,0,.08-.06.08H9.64c-.06,0-.07,0-.07-.08V6.19c0-.5-.18-.78-.7-.78a1.75,1.75,0,0,0-.6.1V8.87a0,0,0,0,1,0,.05H7.36s-.06,0-.06-.05V5.51h0"/></g></g></svg>