<svg xmlns="http://www.w3.org/2000/svg" viewBox="0 0 14 14"><defs><style>.cls-1{fill:#1a1a1a;}.cls-2{fill:#f5f5f5;}.cls-3{fill:#fefefe;}.cls-4{fill:#c2c2c2;}</style></defs><title>express</title><g id="Layer_2" data-name="Layer 2"><g id="Asset_export" data-name="Asset export"><circle class="cls-1" cx="7" cy="7" r="7"/><path class="cls-2" d="M4.72,7.53H2.88c-.11,0-.11-.15-.11,0a2.12,2.12,0,0,0,.06.43A1.41,1.41,0,0,0,4.07,9,2,2,0,0,0,5,8.91a1.13,1.13,0,0,0,.76-.8s0-.07.09-.07h.69c.08,0,.08,0,.06.08A1.82,1.82,0,0,1,5.49,9.48a2.69,2.69,0,0,1-2.17,0A2,2,0,0,1,2.16,8.38,3.38,3.38,0,0,1,2,6.12,2.36,2.36,0,0,1,3.39,4.46a2.4,2.4,0,0,1,1.75,0,2.09,2.09,0,0,1,1.11,1,3.35,3.35,0,0,1,.41,1.31,5.61,5.61,0,0,1,0,.58c0,.11,0,.27-.11.27Z"/><path class="cls-3" d="M7.61,4.29h.48a.12.12,0,0,1,.13.06l1.2,1.76c.05.08.05.08.11,0,.42-.59.84-1.17,1.25-1.76a.13.13,0,0,1,.14-.06h.89s0,0,.06,0,0,0,0,.06L10.08,6.72a.1.1,0,0,0,0,.14l2,2.76,0,0s0,0,0,.05,0,0,0,0h-1c-.06,0-.08,0-.11-.07L9.53,7.55c-.06-.08-.06-.08-.11,0C9,8.25,8.48,8.94,8,9.64a.17.17,0,0,1-.16.08H7s-.06,0-.08,0,0-.05,0-.07l1.92-2.7a.1.1,0,0,0,0-.16L7.09,4.36s0,0,0-.06,0,0,.07,0Z"/><path class="cls-1" d="M2.78,6.51a.89.89,0,0,1,0-.28A1.45,1.45,0,0,1,4,5.06a1.47,1.47,0,0,1,1.38.45,1.59,1.59,0,0,1,.38.87s0,.09,0,.13l-.06,0H2.83Z"/><path class="cls-4" d="M2.78,6.51h3a.18.18,0,0,1-.1,0H2.88Z"/></g></g></svg>