<svg xmlns="http://www.w3.org/2000/svg" viewBox="0 0 12.97 13"><defs><style>.cls-1{fill:#fff;}</style></defs><title>oauth</title><g id="Layer_2" data-name="Layer 2"><g id="Asset_export" data-name="Asset export"><path class="cls-1" d="M6,0a6.16,6.16,0,0,1,5.87,2.92A6.9,6.9,0,0,1,13,6.44a6.62,6.62,0,0,1-1.08,3.64,6.49,6.49,0,0,1-2.48,2.26,6.66,6.66,0,0,1-5.67.05A6.42,6.42,0,0,1,.15,7.86,6.83,6.83,0,0,1,.21,4.75,5.46,5.46,0,0,1,.49,4,6.41,6.41,0,0,1,2.65,1.24,8,8,0,0,1,3.91.52,6.74,6.74,0,0,1,6,0Z"/><path d="M11.47,6.6A4.92,4.92,0,1,1,6.55,1.69,4.92,4.92,0,0,1,11.47,6.6Z"/><path d="M6,0a6.16,6.16,0,0,1,5.87,2.92A6.9,6.9,0,0,1,13,6.44a6.62,6.62,0,0,1-1.08,3.64,6.49,6.49,0,0,1-2.48,2.26,6.66,6.66,0,0,1-5.67.05A6.42,6.42,0,0,1,.15,7.86,6.83,6.83,0,0,1,.21,4.75,5.46,5.46,0,0,1,.49,4,6.41,6.41,0,0,1,2.65,1.24,8,8,0,0,1,3.91.52,6.74,6.74,0,0,1,6,0Zm-1,.47A6.65,6.65,0,0,0,2.52,1.8a5.88,5.88,0,0,0-2,3.14A6.34,6.34,0,0,0,1,9.22a6.07,6.07,0,0,0,2.47,2.64,6.24,6.24,0,0,0,4.17.7,6,6,0,0,0,3.34-1.78A6.23,6.23,0,0,0,12.41,5a6.65,6.65,0,0,0-.72-1.84A6.25,6.25,0,0,0,11,2.27,5.92,5.92,0,0,0,6.19.32,6,6,0,0,0,5.05.49Z"/><path d="M10.63,2.3A5.34,5.34,0,0,0,8.74,1.05,6,6,0,0,0,6.05.6a5.83,5.83,0,0,0-3.7,1.75A5.82,5.82,0,0,0,1,4.58,6,6,0,0,0,1,8.67a5.7,5.7,0,0,0,2.14,2.69,5.82,5.82,0,0,0,7.9-1.16,3.18,3.18,0,0,0,.58-1c.13-.27.2-.45.25-.55a5,5,0,0,0,.42-1.78A5.83,5.83,0,0,0,10.63,2.3Zm-.54,6v0A2.33,2.33,0,0,1,9.67,9a4,4,0,0,1-2.86,1.52,4.14,4.14,0,0,1-2.66-.71A3.92,3.92,0,0,1,2.84,8.38s-.2-.44-.2-.46a4.94,4.94,0,0,1,0-2.67,4.19,4.19,0,0,1,.8-1.42,3.83,3.83,0,0,1,1.81-1.2,3.66,3.66,0,0,1,1.14-.25,4.32,4.32,0,0,1,2.81,1,4.58,4.58,0,0,1,1.33,2.37A3.87,3.87,0,0,1,10.09,8.34Z"/><path class="cls-1" d="M8.19,9.23a.67.67,0,0,1-.59-.48l-.3-1H5.8l-.28,1a.66.66,0,0,1-.6.46.61.61,0,0,1-.19,0,.62.62,0,0,1-.41-.77L5.59,4.3a.74.74,0,0,1,.59-.53h.67a.73.73,0,0,1,.59.53L8.78,8.37a.66.66,0,0,1-.4.81.67.67,0,0,1-.19.05Z"/><path d="M8.19,9.31a.79.79,0,0,1-.66-.58l-.28-1H5.85l-.26,1a.76.76,0,0,1-.67.54.74.74,0,0,1-.21,0,.69.69,0,0,1-.46-.86L5.52,4.32a.76.76,0,0,1,.66-.55h.67a.76.76,0,0,1,.66.54L8.85,8.36a.7.7,0,0,1-.44.89A.6.6,0,0,1,8.19,9.31ZM5.74,7.77H7.35l.32,1a.55.55,0,0,0,.52.39l.17,0a.55.55,0,0,0,.35-.69L7.37,4.28c-.07-.22-.28-.51-.52-.51H6.18c-.23,0-.45.3-.52.52L4.39,8.38a.6.6,0,0,0,.53.76.58.58,0,0,0,.53-.4Z"/></g></g></svg>