<svg xmlns="http://www.w3.org/2000/svg" viewBox="0 0 16.31 24.96"><defs><style>.cls-1{fill:#3c79e1;}.cls-2{fill:#fff;}</style></defs><title>pdf</title><g id="Layer_2" data-name="Layer 2"><g id="Asset_export" data-name="Asset export"><path class="cls-1" d="M13.23,0H2.2A1.16,1.16,0,0,0,1,1.16V19.92A1.17,1.17,0,0,0,2.2,21.09H4.37l-.56-.76a1.88,1.88,0,0,1-.14-.24H2.2A.17.17,0,0,1,2,19.92V1.16A.16.16,0,0,1,2.2,1H12.82l2.49,2.5V19.92a.17.17,0,0,1-.16.17H13.69l-.14.25-.56.75h2.16a1.17,1.17,0,0,0,1.16-1.17V3.09Z"/><rect class="cls-1" y="6.78" width="14.1" height="6.77" rx="0.71"/><polygon class="cls-1" points="15.81 4.2 12.12 4.2 12.12 0.5 13.21 0.5 15.81 2.97 15.81 4.2"/><path class="cls-2" d="M.75,12.38V7.94H2.19A4.68,4.68,0,0,1,3.25,8a1.12,1.12,0,0,1,.64.43,1.39,1.39,0,0,1,.26.87A1.4,1.4,0,0,1,4,10a1.17,1.17,0,0,1-.38.44,1.12,1.12,0,0,1-.46.21,5.24,5.24,0,0,1-.93.07H1.64v1.67Zm.89-3.69V10h.49a2.19,2.19,0,0,0,.71-.07.57.57,0,0,0,.28-.22.58.58,0,0,0,.11-.34.55.55,0,0,0-.15-.4.59.59,0,0,0-.36-.2,4.23,4.23,0,0,0-.64,0Z"/><path class="cls-2" d="M5.35,7.94H7A3.48,3.48,0,0,1,7.83,8a1.54,1.54,0,0,1,.67.41,2,2,0,0,1,.43.72,3.26,3.26,0,0,1,.14,1,3,3,0,0,1-.13,1,1.91,1.91,0,0,1-.48.78,1.58,1.58,0,0,1-.63.36,2.81,2.81,0,0,1-.79.09H5.35Zm.9.75v2.94h.67a2.35,2.35,0,0,0,.54,0,1,1,0,0,0,.36-.18A1,1,0,0,0,8.06,11a3,3,0,0,0,.09-.82,2.72,2.72,0,0,0-.09-.79,1.12,1.12,0,0,0-.26-.43.94.94,0,0,0-.41-.21,4.1,4.1,0,0,0-.74,0Z"/><path class="cls-2" d="M10.31,12.38V7.94h3v.75H11.2V9.74h1.86v.75H11.2v1.89Z"/><path class="cls-1" d="M6.54,17.34V15.78a.57.57,0,0,1,.65-.65c1,0,2,0,3,0,.44,0,.64.21.65.65v3.08c0,.35,0,.38.37.38s.86,0,1.29,0a.52.52,0,0,1,.36.15c0,.06,0,.25-.1.34q-1.83,2.49-3.67,5-.39.53-.78,0-1.84-2.47-3.67-5c-.07-.09-.15-.28-.11-.34a.51.51,0,0,1,.36-.15c.46,0,.92,0,1.37,0,.22,0,.3-.09.3-.3C6.53,18.41,6.54,17.88,6.54,17.34Z"/></g></g></svg>