<svg xmlns="http://www.w3.org/2000/svg" xmlns:xlink="http://www.w3.org/1999/xlink" viewBox="0 0 13.4 15"><defs><style>.cls-1{fill:#2062af;}.cls-2{fill:#3c9cd7;}.cls-3{fill:#fff;}.cls-4{fill:url(#linear-gradient);}.cls-5{fill:url(#linear-gradient-2);}.cls-6{fill:url(#linear-gradient-3);}.cls-7{opacity:0.05;isolation:isolate;}.cls-8{fill:url(#linear-gradient-4);}</style><linearGradient id="linear-gradient" x1="-2143.53" y1="-317.94" x2="-2143.53" y2="-318.64" gradientTransform="translate(9954.74 1483.47) scale(4.64)" gradientUnits="userSpaceOnUse"><stop offset="0.39" stop-color="#d1d3d4" stop-opacity="0"/><stop offset="1" stop-color="#d1d3d4"/></linearGradient><linearGradient id="linear-gradient-2" x1="-2142.66" y1="-318.29" x2="-2142.66" y2="-319.01" xlink:href="#linear-gradient"/><linearGradient id="linear-gradient-3" x1="-2143.98" y1="-317.59" x2="-2142.31" y2="-317.59" gradientTransform="translate(9954.74 1483.47) scale(4.64)" gradientUnits="userSpaceOnUse"><stop offset="0" stop-color="#e8e7e5"/><stop offset="1" stop-color="#fff"/></linearGradient><linearGradient id="linear-gradient-4" x1="-2144.19" y1="-318.92" x2="-2142.24" y2="-318.92" xlink:href="#linear-gradient-3"/></defs><title>css3</title><g id="Layer_2" data-name="Layer 2"><g id="Asset_export" data-name="Asset export"><path class="cls-1" d="M12.14,13.56,6.7,15,1.26,13.57,0,0H13.4Z"/><path class="cls-2" d="M6.92,1v12.8h-.1l4.35-1.05,1-11.49H6.7Z"/><path class="cls-3" d="M6.69,4.41,2.8,6l.13,1.61L6.69,6l4-1.71.16-1.65L6.69,4.41Z"/><path class="cls-4" d="M2.91,6,3.1,7.64,6.92,6V4.41Z"/><path class="cls-5" d="M11,2.67,6.92,4.41V6l3.95-1.71Z"/><path class="cls-6" d="M2.8,6.35,2.93,7.8l5.78-.06-.13,2.1-1.9.51-1.83-.29L4.74,8.89H3l.23,2.39,3.43.93,3.41-.88.45-5Z"/><path class="cls-7" d="M6.69,6.35H2.8L3,7.8l3.88-.15V6Zm.23,4H6.79L4.9,10.05,4.74,8.89H3l.33,2.39,3.55.84Z"/><path class="cls-8" d="M1.84,2.54h9L10.7,3.81h-8L1.84,2.35Z"/><path class="cls-7" d="M6.69,2.54H2.45l.2,1.27H6.92V2.67Z"/></g></g></svg>