<svg xmlns="http://www.w3.org/2000/svg" viewBox="0 0 13 12.46"><title>git</title><g id="Layer_2" data-name="Layer 2"><g id="Asset_export" data-name="Asset export"><path d="M6.5,0A6.45,6.45,0,0,0,0,6.39a6.4,6.4,0,0,0,4.44,6.06c.33.06.45-.14.45-.31s0-.55,0-1.09c-1.81.39-2.19-.85-2.19-.85A1.69,1.69,0,0,0,2,9.26c-.59-.39,0-.38,0-.38a1.34,1.34,0,0,1,1,.65,1.39,1.39,0,0,0,1.89.53,1.39,1.39,0,0,1,.41-.85c-1.44-.16-3-.71-3-3.16A2.44,2.44,0,0,1,3,4.34a2.25,2.25,0,0,1,.06-1.69s.54-.17,1.79.65a6.26,6.26,0,0,1,1.62-.21,6.34,6.34,0,0,1,1.63.21c1.23-.82,1.78-.65,1.78-.65A2.25,2.25,0,0,1,10,4.34a2.44,2.44,0,0,1,.67,1.71c0,2.46-1.52,3-3,3.16a1.5,1.5,0,0,1,.44,1.18c0,.85,0,1.54,0,1.75s.12.36.45.3a6.38,6.38,0,0,0,4.46-6A6.45,6.45,0,0,0,6.5,0Z"/></g></g></svg>