<svg xmlns="http://www.w3.org/2000/svg" viewBox="0 0 13.23 15"><defs><style>.cls-1{fill:#e44d26;}.cls-2{fill:#f16529;}.cls-3{fill:#ebebeb;}.cls-4{fill:#fff;}</style></defs><title>html5</title><g id="Layer_2" data-name="Layer 2"><g id="Asset_export" data-name="Asset export"><path class="cls-1" d="M1.2,13.5,0,0H13.23L12,13.5,6.61,15Z"/><path class="cls-2" d="M6.61,13.85,11,12.64,12,1.1H6.61Z"/><path class="cls-3" d="M6.61,6.11H4.42L4.27,4.42H6.61V2.76H2.46l0,.44.41,4.57h3.7Zm0,4.3h0L4.76,9.92,4.64,8.59H3l.23,2.6,3.4,1h0Z"/><path class="cls-4" d="M6.61,6.11V7.77h2l-.2,2.14-1.84.5v1.73l3.39-1,0-.28.39-4.35,0-.45H6.61Zm0-3.35V4.42h4l0-.38.08-.84,0-.44Z"/></g></g></svg>