<svg xmlns="http://www.w3.org/2000/svg" viewBox="0 0 15 13.36"><defs><style>.cls-1{fill:#61dafb;}</style></defs><title>react</title><g id="Layer_2" data-name="Layer 2"><g id="Asset_export" data-name="Asset export"><path class="cls-1" d="M15,6.68c0-1-1.24-1.94-3.15-2.52.44-1.94.26-3.49-.6-4A2.63,2.63,0,0,0,10.58,0V.68a1.34,1.34,0,0,1,.33.08c.42.24.59,1.15.45,2.32a7.77,7.77,0,0,1-.16.9,15.63,15.63,0,0,0-1.94-.34A15.42,15.42,0,0,0,8,2.12C9,1.19,9.56.68,10.58.68V0h0A9.41,9.41,0,0,0,7.5,1.64,4.74,4.74,0,0,0,4.42,0V.69C5.45.69,6,1.2,7,2.12A15.18,15.18,0,0,0,5.74,3.64,15.31,15.31,0,0,0,3.8,4c-.07-.31-.12-.6-.16-.89C3.5,1.93,3.67,1,4.08.78A1,1,0,0,1,4.42.7V0h0a2.29,2.29,0,0,0-.68.17c-.86.49-1.05,2-.6,4C1.24,4.75,0,5.69,0,6.68S1.25,8.61,3.15,9.2c-.44,1.94-.24,3.49.62,4a1.31,1.31,0,0,0,.69.18,5.1,5.1,0,0,0,3.05-1.64,5.15,5.15,0,0,0,3.06,1.62,1.33,1.33,0,0,0,.69-.17c.86-.49,1.05-2,.61-4C13.76,8.61,15,7.67,15,6.68Zm-4-2c-.11.39-.25.8-.41,1.21l-.4-.74c-.14-.24-.29-.48-.44-.71A12,12,0,0,1,11,4.64ZM9.62,7.9c-.24.41-.48.8-.74,1.16q-.68.06-1.38.06c-.46,0-.92,0-1.37,0-.26-.37-.51-.76-.74-1.16s-.45-.81-.64-1.22c.19-.41.4-.82.63-1.22s.49-.81.74-1.17q.69-.06,1.38-.06t1.38.06c.25.36.5.75.74,1.16s.44.81.63,1.22C10.06,7.09,9.85,7.5,9.62,7.9Zm1-.4c.16.41.3.82.42,1.22-.4.09-.82.18-1.26.24.15-.24.3-.48.44-.72Zm-3.1,3.26a10.5,10.5,0,0,1-.85-1l.84,0c.29,0,.57,0,.85,0A12.19,12.19,0,0,1,7.51,10.76ZM5.23,9A12,12,0,0,1,4,8.72a12.33,12.33,0,0,1,.41-1.21c.13.25.26.49.4.73S5.08,8.73,5.23,9ZM7.49,2.6a10.5,10.5,0,0,1,.85,1c-.27,0-.55,0-.84,0s-.57,0-.85,0A12.19,12.19,0,0,1,7.49,2.6ZM5.23,4.4c-.15.23-.3.48-.44.72l-.4.74C4.23,5.45,4.09,5,4,4.64,4.37,4.55,4.79,4.46,5.23,4.4ZM2.46,8.23C1.38,7.76.68,7.16.68,6.68s.7-1.09,1.78-1.55c.27-.11.55-.21.85-.31A13.42,13.42,0,0,0,4,6.69a14,14,0,0,0-.68,1.85C3,8.44,2.73,8.34,2.46,8.23Zm1.65,4.36c-.42-.23-.6-1.14-.46-2.31,0-.29.09-.59.16-.9a13.74,13.74,0,0,0,1.94.33A14.32,14.32,0,0,0,7,11.24a4.51,4.51,0,0,1-2.57,1.44A.71.71,0,0,1,4.11,12.59Zm7.25-2.32c.14,1.16,0,2.07-.45,2.31a.63.63,0,0,1-.35.08A4.54,4.54,0,0,1,8,11.24,14.32,14.32,0,0,0,9.26,9.71a13.74,13.74,0,0,0,1.94-.33A7.25,7.25,0,0,1,11.36,10.27Zm1.18-2c-.27.11-.55.21-.85.3A13.79,13.79,0,0,0,11,6.67a14,14,0,0,0,.68-1.85c.3.1.59.2.86.31,1.08.46,1.78,1.07,1.78,1.55S13.62,7.77,12.54,8.23Z"/><circle class="cls-1" cx="7.5" cy="6.68" r="1.4"/></g></g></svg>