<svg xmlns="http://www.w3.org/2000/svg" viewBox="0 0 15 10.22"><defs><style>.cls-1{fill:#0187ce;}</style></defs><title>restful_apis</title><g id="Layer_2" data-name="Layer 2"><g id="Asset_export" data-name="Asset export"><path class="cls-1" d="M1.91,4.47A2.58,2.58,0,0,1,3.14,1.58a2.59,2.59,0,0,1,3.1.54A3.47,3.47,0,0,1,8.8.07,3.7,3.7,0,0,1,11,.31,3.65,3.65,0,0,1,13,4.41l.4.19a3,3,0,0,1,1.57,3.3,2.93,2.93,0,0,1-2.82,2.31H2.91A2.94,2.94,0,0,1,.08,8,3,3,0,0,1,1.59,4.63Zm5.31-.82L5,5,7.22,6.35V5.49h3v-1h-3ZM8.23,7h-3V8h3v.86L10.4,7.5,8.23,6.15Z"/></g></g></svg>